<svg width="640" height="640" viewBox="0 0 640 640" fill="none" xmlns="http://www.w3.org/2000/svg">
<rect width="640" height="640" rx="300" fill="white"/>
<path d="M544.835 416.423V412.175L478.362 364.637V371.435L536.765 414.193L536.55 413.768V414.83L536.765 414.405L480.138 454.363V461.161L544.835 416.423Z" fill="#6B2F87"/>
<path d="M454.668 366.414L429.683 459.239H424.171L449.156 366.414H454.668Z" fill="#6B2F87"/>
<path d="M117.682 416.423V412.175L184.156 364.637V371.435L125.752 414.193L125.967 413.768V414.83L125.752 414.405L182.379 454.363V461.161L117.682 416.423Z" fill="#6B2F87"/>
<path d="M541.571 182.769C537.076 188.898 531.254 195.118 524.507 201.002C517.759 206.885 510.246 212.293 502.483 216.852C494.72 221.411 486.892 225.014 479.537 227.413C472.182 229.813 466.406 231.256 460.807 231.055L470.579 217.73C476.798 210.179 488.49 202.836 491.099 201.985C493.707 201.134 496.484 199.856 499.237 198.239C501.991 196.622 505.498 196.719 507.891 194.632C510.284 192.545 519.178 192.364 520.772 190.19L541.571 182.769Z" fill="#D9D9D9"/>
<path d="M370.757 490.016C363.7 492.838 355.469 495.036 346.631 496.459C337.792 497.881 328.555 498.494 319.556 498.256C310.556 498.017 302.007 496.933 294.497 495.077C286.986 493.221 281.321 491.39 276.676 488.258L323.554 488.258L370.757 490.016Z" fill="#D9D9D9"/>
<path d="M99.438 182.768C103.933 188.896 109.754 195.117 116.502 201C123.249 206.883 130.763 212.291 138.525 216.85C146.288 221.409 154.116 225.012 161.471 227.412C168.826 229.811 174.603 231.254 180.201 231.054L170.429 217.728C164.211 210.177 152.519 202.834 149.91 201.983C147.301 201.132 144.525 199.854 141.771 198.237C139.018 196.62 135.511 196.717 133.118 194.63C130.724 192.543 121.831 192.362 120.236 190.188L99.438 182.768Z" fill="#D9D9D9"/>
<path d="M284.893 434.861C284.116 433.398 282.299 432.843 280.836 433.62C279.373 434.398 278.818 436.214 279.595 437.677L284.893 434.861ZM287.575 443.82L285.52 446.007L287.575 443.82ZM295.808 451.944C297.351 452.548 299.091 451.788 299.696 450.245C300.3 448.703 299.54 446.962 297.997 446.358L295.808 451.944ZM269.057 485.74C267.432 485.419 265.854 486.475 265.532 488.1C265.21 489.726 266.266 491.304 267.892 491.626L269.057 485.74ZM292.016 488.683L291.186 485.8L292.016 488.683ZM323.998 488.683L324.003 485.683L323.998 488.683ZM358.628 437.796C359.406 436.332 358.85 434.516 357.387 433.738C355.924 432.961 354.107 433.516 353.33 434.98L358.628 437.796ZM350.649 443.939L352.703 446.125L350.649 443.939ZM340.226 446.476C338.684 447.08 337.923 448.821 338.528 450.363C339.132 451.906 340.873 452.667 342.415 452.062L340.226 446.476ZM380.104 491.744C381.729 491.422 382.785 489.844 382.464 488.219C382.142 486.593 380.563 485.537 378.938 485.859L380.104 491.744ZM355.979 488.801L356.809 485.919L355.979 488.801ZM208.509 315.895L211.509 315.921L211.517 315.03L211.037 314.28L208.509 315.895ZM198.293 299.904L200.821 298.289L200.325 297.513L199.479 297.149L198.293 299.904ZM128.112 269.7L129.298 266.944L129.153 266.882L129.002 266.835L128.112 269.7ZM65.4815 226.614L62.7526 227.86L65.4815 226.614ZM63.7047 165.316L65.2055 162.718H65.2055L63.7047 165.316ZM190.742 212.844L189.768 215.681L190.742 212.844ZM208.509 197.297L211.205 198.613L211.28 198.46L211.337 198.299L208.509 197.297ZM325.33 123.118L325.211 126.116L325.33 126.121L325.449 126.116L325.33 123.118ZM226.721 418.502L224.003 419.772L226.721 418.502ZM168.089 212.844L165.892 214.887L168.089 212.844ZM177.958 230.385C178.814 231.803 180.658 232.259 182.076 231.403C183.495 230.546 183.95 228.702 183.094 227.284L177.958 230.385ZM431.491 316.013L428.963 314.398L428.483 315.148L428.491 316.039L431.491 316.013ZM441.707 300.022L440.521 297.267L439.675 297.631L439.179 298.407L441.707 300.022ZM511.888 269.818L510.998 266.953L510.847 267L510.703 267.062L511.888 269.818ZM574.519 226.732L577.248 227.978L574.519 226.732ZM576.295 165.434L574.795 162.837L576.295 165.434ZM449.258 212.962L450.232 215.8L449.258 212.962ZM431.491 197.415L428.559 198.051L428.636 198.405L428.795 198.731L431.491 197.415ZM413.279 418.62L415.997 419.89L413.279 418.62ZM471.912 212.962L474.108 215.005L471.912 212.962ZM456.906 227.402C456.05 228.821 456.505 230.665 457.924 231.521C459.342 232.377 461.186 231.922 462.043 230.503L456.906 227.402ZM282.244 436.269C279.595 437.677 279.595 437.678 279.596 437.678C279.596 437.678 279.596 437.678 279.596 437.679C279.596 437.679 279.597 437.68 279.597 437.68C279.598 437.682 279.598 437.683 279.6 437.685C279.602 437.689 279.604 437.694 279.608 437.701C279.614 437.713 279.624 437.73 279.636 437.752C279.659 437.796 279.693 437.858 279.736 437.937C279.822 438.094 279.946 438.317 280.103 438.59C280.414 439.136 280.859 439.889 281.391 440.728C282.418 442.342 283.916 444.499 285.52 446.007L289.629 441.634C288.603 440.67 287.436 439.051 286.455 437.508C285.984 436.768 285.589 436.097 285.312 435.613C285.174 435.372 285.066 435.178 284.995 435.048C284.959 434.983 284.932 434.933 284.915 434.901C284.906 434.886 284.9 434.874 284.897 434.867C284.895 434.864 284.894 434.862 284.893 434.861C284.893 434.86 284.893 434.86 284.893 434.86C284.893 434.86 284.893 434.86 284.893 434.861C284.893 434.861 284.893 434.861 284.893 434.861C284.893 434.861 284.893 434.861 282.244 436.269ZM285.52 446.007C287.386 447.76 290.052 449.252 292.045 450.247C293.08 450.764 294.01 451.183 294.683 451.475C295.02 451.621 295.295 451.736 295.488 451.815C295.585 451.855 295.662 451.886 295.716 451.907C295.743 451.918 295.764 451.927 295.779 451.933C295.787 451.936 295.794 451.938 295.798 451.94C295.801 451.941 295.803 451.942 295.804 451.942C295.805 451.943 295.806 451.943 295.806 451.943C295.807 451.943 295.807 451.944 295.807 451.944C295.808 451.944 295.808 451.944 296.902 449.151C297.997 446.358 297.997 446.358 297.998 446.358C297.998 446.358 297.998 446.358 297.998 446.358C297.998 446.358 297.998 446.358 297.998 446.358C297.999 446.358 297.998 446.358 297.998 446.358C297.996 446.357 297.993 446.356 297.989 446.354C297.981 446.351 297.967 446.345 297.947 446.338C297.908 446.322 297.847 446.297 297.766 446.264C297.604 446.198 297.365 446.098 297.067 445.969C296.469 445.71 295.64 445.336 294.725 444.879C292.818 443.927 290.82 442.754 289.629 441.634L285.52 446.007ZM268.475 488.683C267.892 491.626 267.892 491.626 267.893 491.626C267.893 491.626 267.894 491.626 267.894 491.627C267.895 491.627 267.897 491.627 267.898 491.627C267.901 491.628 267.905 491.629 267.909 491.63C267.919 491.631 267.931 491.634 267.947 491.637C267.979 491.643 268.024 491.652 268.082 491.662C268.197 491.684 268.363 491.714 268.575 491.751C268.998 491.826 269.607 491.927 270.364 492.039C271.877 492.263 273.995 492.532 276.427 492.711C281.212 493.063 287.527 493.097 292.846 491.566L291.186 485.8C286.911 487.031 281.456 487.065 276.868 486.727C274.614 486.561 272.645 486.312 271.243 486.104C270.543 486 269.987 485.908 269.611 485.842C269.422 485.809 269.279 485.782 269.185 485.765C269.139 485.756 269.104 485.749 269.083 485.745C269.072 485.743 269.064 485.742 269.06 485.741C269.058 485.741 269.057 485.74 269.056 485.74C269.056 485.74 269.056 485.74 269.056 485.74C269.056 485.74 269.057 485.74 269.057 485.74C269.057 485.74 269.057 485.74 268.475 488.683ZM292.846 491.566C304.485 488.216 308.735 488.393 311.447 489.049C313.973 489.66 317.332 491.671 323.992 491.683L324.003 485.683C318.174 485.672 317.313 484.295 312.857 483.217C308.586 482.184 303.09 482.374 291.186 485.8L292.846 491.566ZM355.979 436.388C353.33 434.98 353.33 434.979 353.33 434.979C353.33 434.979 353.33 434.979 353.33 434.979C353.33 434.978 353.33 434.978 353.33 434.978C353.331 434.978 353.33 434.978 353.33 434.979C353.33 434.98 353.328 434.982 353.327 434.986C353.323 434.992 353.317 435.004 353.308 435.02C353.291 435.051 353.264 435.101 353.228 435.166C353.157 435.297 353.049 435.49 352.911 435.731C352.635 436.215 352.24 436.886 351.769 437.627C350.788 439.169 349.621 440.788 348.594 441.752L352.703 446.125C354.307 444.617 355.805 442.461 356.832 440.846C357.365 440.008 357.809 439.254 358.121 438.708C358.277 438.435 358.401 438.212 358.487 438.055C358.53 437.977 358.564 437.915 358.588 437.871C358.599 437.849 358.609 437.831 358.616 437.819C358.619 437.812 358.622 437.807 358.624 437.803C358.625 437.802 358.626 437.8 358.626 437.799C358.627 437.798 358.627 437.797 358.627 437.797C358.627 437.797 358.628 437.796 358.628 437.796C358.628 437.796 358.628 437.796 355.979 436.388ZM348.594 441.752C347.403 442.872 345.405 444.045 343.498 444.997C342.583 445.454 341.754 445.828 341.156 446.087C340.858 446.216 340.619 446.316 340.457 446.382C340.377 446.415 340.316 446.44 340.276 446.456C340.257 446.464 340.242 446.469 340.234 446.473C340.23 446.474 340.227 446.475 340.226 446.476C340.225 446.476 340.225 446.476 340.225 446.476C340.225 446.476 340.225 446.476 340.225 446.476C340.225 446.476 340.226 446.476 340.226 446.476C340.226 446.476 340.226 446.476 341.321 449.269C342.415 452.062 342.416 452.062 342.416 452.062C342.416 452.062 342.417 452.062 342.417 452.061C342.417 452.061 342.418 452.061 342.419 452.061C342.421 452.06 342.423 452.059 342.425 452.058C342.43 452.056 342.436 452.054 342.444 452.051C342.459 452.045 342.481 452.036 342.508 452.025C342.562 452.004 342.638 451.973 342.735 451.933C342.928 451.854 343.203 451.739 343.54 451.593C344.213 451.302 345.144 450.882 346.178 450.365C348.171 449.37 350.837 447.878 352.703 446.125L348.594 441.752ZM379.521 488.801C378.938 485.859 378.938 485.859 378.939 485.858C378.939 485.858 378.939 485.858 378.939 485.858C378.939 485.858 378.939 485.858 378.939 485.858C378.939 485.858 378.937 485.859 378.935 485.859C378.931 485.86 378.923 485.861 378.913 485.863C378.891 485.868 378.857 485.874 378.81 485.883C378.716 485.901 378.573 485.927 378.385 485.96C378.008 486.026 377.452 486.119 376.752 486.222C375.35 486.43 373.382 486.679 371.127 486.845C366.54 487.183 361.085 487.149 356.809 485.919L355.149 491.684C360.468 493.216 366.784 493.182 371.568 492.829C374 492.65 376.118 492.382 377.631 492.158C378.388 492.045 378.997 491.944 379.421 491.87C379.633 491.833 379.798 491.802 379.914 491.781C379.971 491.77 380.016 491.761 380.048 491.755C380.064 491.752 380.077 491.75 380.086 491.748C380.091 491.747 380.094 491.746 380.097 491.746C380.099 491.745 380.1 491.745 380.101 491.745C380.102 491.745 380.102 491.745 380.102 491.745C380.103 491.744 380.104 491.744 379.521 488.801ZM356.809 485.919C344.907 482.492 339.42 482.287 335.157 483.289C330.709 484.334 329.838 485.694 324.003 485.683L323.992 491.683C330.647 491.696 333.995 489.726 336.53 489.13C339.25 488.491 343.508 488.333 355.149 491.684L356.809 485.919ZM211.037 314.28L200.821 298.289L195.765 301.519L205.981 317.51L211.037 314.28ZM199.479 297.149L129.298 266.944L126.926 272.455L197.107 302.66L199.479 297.149ZM128.112 269.7C129.002 266.835 129.002 266.835 129.003 266.835C129.003 266.835 129.003 266.835 129.002 266.835C129.001 266.835 129 266.834 128.998 266.833C128.993 266.832 128.986 266.83 128.975 266.826C128.955 266.82 128.922 266.81 128.878 266.795C128.789 266.767 128.655 266.724 128.477 266.666C128.122 266.55 127.593 266.375 126.912 266.14C125.549 265.672 123.58 264.969 121.174 264.04C116.358 262.179 109.814 259.419 102.895 255.818C88.8676 248.518 74.0426 238.139 68.2105 225.367L62.7526 227.86C69.4906 242.615 85.9806 253.779 100.125 261.141C107.293 264.87 114.05 267.72 119.012 269.637C121.496 270.596 123.536 271.324 124.96 271.814C125.673 272.059 126.232 272.245 126.616 272.37C126.807 272.433 126.956 272.48 127.058 272.513C127.108 272.529 127.148 272.541 127.175 272.55C127.189 272.554 127.2 272.558 127.207 272.56C127.211 272.561 127.214 272.562 127.217 272.563C127.218 272.563 127.219 272.564 127.22 272.564C127.22 272.564 127.221 272.564 128.112 269.7ZM68.2105 225.367C63.3596 214.745 58.0077 196.831 56.347 183.108C55.9341 179.696 55.7585 176.613 55.859 174.01C55.9611 171.364 56.3424 169.424 56.8959 168.171C57.4221 166.979 57.9281 166.745 58.2581 166.675C58.7693 166.567 59.9735 166.625 62.2038 167.913L65.2055 162.718C62.4388 161.12 59.64 160.248 57.0107 160.806C54.2002 161.404 52.4281 163.435 51.4071 165.748C50.4133 167.998 49.9783 170.802 49.8634 173.778C49.7468 176.798 49.9534 180.217 50.3904 183.829C52.1293 198.198 57.6599 216.707 62.7526 227.86L68.2105 225.367ZM189.768 215.681C193.13 216.835 196.301 215.8 198.805 214.21C201.293 212.63 203.487 210.294 205.254 208.048C207.044 205.771 208.526 203.42 209.552 201.656C210.068 200.77 210.476 200.02 210.757 199.488C210.897 199.222 211.007 199.009 211.082 198.86C211.12 198.786 211.149 198.727 211.17 198.685C211.18 198.664 211.188 198.648 211.194 198.636C211.197 198.63 211.2 198.625 211.201 198.621C211.202 198.619 211.203 198.617 211.204 198.616C211.204 198.615 211.205 198.615 211.205 198.614C211.205 198.614 211.205 198.613 208.509 197.297C205.813 195.982 205.813 195.981 205.814 195.981C205.814 195.981 205.814 195.98 205.814 195.98C205.814 195.98 205.814 195.98 205.814 195.98C205.813 195.981 205.813 195.983 205.811 195.986C205.808 195.991 205.803 196.001 205.796 196.015C205.782 196.044 205.76 196.089 205.729 196.149C205.668 196.271 205.574 196.453 205.45 196.688C205.202 197.158 204.835 197.833 204.367 198.638C203.425 200.257 202.099 202.353 200.538 204.338C198.953 206.352 197.251 208.089 195.589 209.144C193.944 210.189 192.714 210.349 191.716 210.006L189.768 215.681ZM208.509 197.297C211.337 198.299 211.337 198.3 211.336 198.301C211.336 198.301 211.336 198.302 211.336 198.301C211.336 198.301 211.337 198.299 211.338 198.296C211.34 198.291 211.344 198.281 211.349 198.266C211.36 198.236 211.377 198.189 211.402 198.123C211.451 197.992 211.527 197.79 211.632 197.523C211.843 196.988 212.168 196.19 212.615 195.167C213.511 193.122 214.896 190.181 216.836 186.653C220.719 179.591 226.808 170.209 235.614 160.942C253.177 142.46 281.585 124.379 325.211 126.116L325.449 120.121C279.794 118.303 249.791 137.313 231.264 156.809C222.026 166.531 215.649 176.36 211.579 183.762C209.542 187.465 208.078 190.57 207.119 192.761C206.639 193.857 206.285 194.726 206.048 195.327C205.93 195.628 205.841 195.863 205.78 196.026C205.75 196.107 205.727 196.171 205.71 196.216C205.702 196.239 205.695 196.257 205.691 196.27C205.688 196.276 205.686 196.282 205.685 196.286C205.684 196.288 205.683 196.291 205.683 196.292C205.682 196.294 205.682 196.295 208.509 197.297ZM325.194 513.67C305.87 514.548 292.19 512.661 282.055 508.601C272.016 504.578 265.258 498.345 259.883 490.099C254.437 481.743 250.432 471.361 245.949 458.99C241.496 446.704 236.616 432.594 229.439 417.232L224.003 419.772C231.04 434.836 235.821 448.655 240.308 461.035C244.764 473.33 248.976 484.353 254.857 493.375C260.809 502.508 268.486 509.628 279.824 514.17C291.065 518.674 305.702 520.562 325.466 519.664L325.194 513.67ZM229.439 417.232C220.279 397.623 215.767 372.37 213.567 351.829C212.472 341.595 211.957 332.602 211.716 326.171C211.596 322.957 211.544 320.385 211.523 318.621C211.512 317.739 211.508 317.059 211.508 316.602C211.508 316.374 211.508 316.201 211.508 316.086C211.508 316.029 211.509 315.987 211.509 315.959C211.509 315.945 211.509 315.935 211.509 315.928C211.509 315.925 211.509 315.923 211.509 315.922C211.509 315.921 211.509 315.921 211.509 315.921C211.509 315.92 211.509 315.921 208.509 315.895C205.509 315.869 205.509 315.87 205.509 315.871C205.509 315.871 205.509 315.873 205.509 315.874C205.509 315.876 205.509 315.88 205.509 315.884C205.509 315.893 205.509 315.906 205.509 315.922C205.509 315.954 205.509 316.002 205.508 316.064C205.508 316.189 205.508 316.372 205.508 316.61C205.508 317.088 205.512 317.79 205.523 318.695C205.545 320.504 205.598 323.126 205.72 326.396C205.965 332.933 206.488 342.067 207.602 352.468C209.821 373.197 214.415 399.247 224.003 419.772L229.439 417.232ZM62.2038 167.913C65.3012 169.703 73.9075 173.278 85.3196 177.728C96.8571 182.227 111.555 187.731 127.081 193.41L129.142 187.775C113.637 182.103 98.9825 176.616 87.4995 172.138C75.8912 167.611 67.8094 164.223 65.2055 162.718L62.2038 167.913ZM127.081 193.41C130.002 194.478 132.952 195.553 135.917 196.628L137.963 190.988C135.003 189.914 132.058 188.841 129.142 187.775L127.081 193.41ZM135.917 196.628C154.591 203.403 173.833 210.213 189.768 215.681L191.716 210.006C175.819 204.551 156.611 197.753 137.963 190.988L135.917 196.628ZM128.112 190.592C127.224 193.458 127.224 193.458 127.224 193.458C127.224 193.458 127.223 193.458 127.223 193.458C127.223 193.458 127.223 193.458 127.223 193.458C127.223 193.458 127.223 193.458 127.224 193.458C127.225 193.458 127.226 193.459 127.229 193.459C127.234 193.461 127.243 193.464 127.255 193.467C127.279 193.475 127.316 193.487 127.367 193.503C127.468 193.535 127.622 193.585 127.824 193.651C128.227 193.783 128.824 193.982 129.583 194.247C131.101 194.776 133.264 195.564 135.821 196.592L138.059 191.025C135.401 189.956 133.15 189.136 131.557 188.581C130.761 188.303 130.129 188.092 129.692 187.949C129.474 187.877 129.304 187.823 129.187 187.786C129.129 187.767 129.084 187.753 129.052 187.743C129.037 187.738 129.024 187.734 129.015 187.732C129.011 187.73 129.008 187.729 129.005 187.728C129.004 187.728 129.002 187.727 129.002 187.727C129.001 187.727 129.001 187.727 129 187.727C129 187.727 129 187.727 129 187.727C129 187.727 128.999 187.727 128.112 190.592ZM135.821 196.592C144.858 200.224 158.2 206.618 165.892 214.887L170.285 210.801C161.61 201.474 147.149 194.679 138.059 191.025L135.821 196.592ZM165.892 214.887C169.755 219.04 172.787 222.938 174.849 225.793C175.879 227.219 176.665 228.381 177.189 229.18C177.451 229.58 177.648 229.888 177.776 230.093C177.841 230.196 177.888 230.272 177.919 230.321C177.934 230.346 177.945 230.364 177.951 230.374C177.954 230.38 177.956 230.383 177.958 230.385C177.958 230.386 177.958 230.386 177.958 230.386C177.958 230.386 177.958 230.386 177.958 230.386C177.958 230.386 177.958 230.386 177.958 230.386C177.958 230.385 177.958 230.385 180.526 228.834C183.094 227.284 183.094 227.284 183.094 227.283C183.093 227.283 183.093 227.283 183.093 227.282C183.093 227.282 183.092 227.281 183.091 227.28C183.09 227.278 183.089 227.276 183.087 227.273C183.084 227.268 183.08 227.26 183.074 227.251C183.063 227.233 183.048 227.208 183.028 227.176C182.988 227.111 182.931 227.019 182.857 226.901C182.708 226.664 182.49 226.323 182.206 225.889C181.637 225.022 180.801 223.785 179.713 222.279C177.539 219.27 174.352 215.172 170.285 210.801L165.892 214.887ZM434.019 317.628L444.235 301.638L439.179 298.407L428.963 314.398L434.019 317.628ZM442.893 302.778L513.074 272.573L510.703 267.062L440.521 297.267L442.893 302.778ZM511.888 269.818C512.779 272.683 512.78 272.682 512.781 272.682C512.781 272.682 512.782 272.682 512.784 272.681C512.786 272.68 512.789 272.679 512.793 272.678C512.801 272.676 512.811 272.673 512.825 272.668C512.852 272.66 512.892 272.647 512.943 272.631C513.044 272.599 513.193 272.551 513.385 272.488C513.768 272.363 514.327 272.177 515.04 271.932C516.464 271.443 518.504 270.714 520.988 269.755C525.95 267.838 532.707 264.989 539.875 261.259C554.02 253.898 570.51 242.734 577.248 227.978L571.79 225.486C565.958 238.257 551.133 248.636 537.105 255.936C530.186 259.537 523.642 262.298 518.826 264.158C516.42 265.088 514.451 265.79 513.088 266.259C512.407 266.493 511.878 266.668 511.523 266.784C511.345 266.842 511.211 266.886 511.122 266.914C511.078 266.928 511.046 266.938 511.025 266.945C511.014 266.948 511.007 266.95 511.002 266.952C511 266.952 510.999 266.953 510.998 266.953C510.998 266.953 510.998 266.953 510.997 266.953C510.998 266.953 510.998 266.953 511.888 269.818ZM577.248 227.978C582.34 216.825 587.871 198.316 589.61 183.947C590.047 180.336 590.253 176.916 590.137 173.897C590.022 170.92 589.587 168.116 588.593 165.866C587.572 163.553 585.8 161.522 582.99 160.925C580.36 160.366 577.561 161.238 574.795 162.837L577.796 168.032C580.027 166.743 581.231 166.685 581.742 166.794C582.072 166.864 582.578 167.098 583.104 168.289C583.658 169.543 584.039 171.482 584.141 174.128C584.242 176.731 584.066 179.814 583.653 183.226C581.992 196.949 576.641 214.863 571.79 225.486L577.248 227.978ZM448.285 210.124C447.286 210.467 446.056 210.307 444.411 209.263C442.75 208.208 441.047 206.471 439.462 204.456C437.901 202.472 436.576 200.375 435.633 198.756C435.165 197.952 434.798 197.276 434.55 196.806C434.426 196.571 434.332 196.389 434.271 196.268C434.24 196.207 434.218 196.162 434.204 196.134C434.197 196.119 434.192 196.109 434.189 196.104C434.188 196.101 434.187 196.099 434.186 196.099C434.186 196.098 434.186 196.098 434.186 196.098C434.186 196.098 434.186 196.099 434.187 196.099C434.187 196.099 434.187 196.1 431.491 197.415C428.795 198.731 428.795 198.732 428.795 198.733C428.796 198.733 428.796 198.734 428.796 198.734C428.797 198.736 428.798 198.737 428.799 198.739C428.801 198.743 428.803 198.748 428.806 198.754C428.812 198.766 428.82 198.783 428.83 198.803C428.851 198.845 428.88 198.904 428.918 198.978C428.994 199.127 429.103 199.34 429.243 199.606C429.524 200.139 429.932 200.888 430.448 201.775C431.475 203.538 432.956 205.889 434.746 208.166C436.514 210.412 438.708 212.748 441.195 214.328C443.699 215.918 446.87 216.953 450.232 215.8L448.285 210.124ZM431.491 197.415C434.423 196.78 434.422 196.778 434.422 196.776C434.422 196.775 434.421 196.772 434.421 196.77C434.42 196.765 434.418 196.76 434.417 196.753C434.414 196.739 434.41 196.721 434.405 196.698C434.394 196.652 434.379 196.587 434.36 196.505C434.321 196.34 434.264 196.103 434.186 195.8C434.031 195.193 433.795 194.319 433.465 193.216C432.804 191.012 431.764 187.89 430.233 184.166C427.175 176.726 422.139 166.836 414.224 157.048C398.313 137.373 370.898 118.302 325.211 120.121L325.449 126.116C369.044 124.381 394.709 142.458 409.558 160.821C417.023 170.051 421.787 179.402 424.684 186.447C426.13 189.967 427.106 192.899 427.717 194.939C428.023 195.958 428.237 196.753 428.373 197.285C428.441 197.55 428.489 197.751 428.52 197.88C428.535 197.945 428.546 197.992 428.552 198.02C428.555 198.035 428.558 198.045 428.559 198.05C428.559 198.052 428.56 198.054 428.56 198.054C428.56 198.054 428.559 198.053 428.559 198.053C428.559 198.052 428.559 198.051 431.491 197.415ZM322.529 519.782C342.274 520.68 356.455 518.799 366.994 514.259C377.665 509.661 384.348 502.446 389.271 493.274C394.111 484.258 397.309 473.214 400.993 460.997C404.709 448.678 408.989 434.893 415.997 419.89L410.561 417.35C403.356 432.774 398.973 446.917 395.249 459.264C391.494 471.714 388.473 482.074 383.985 490.436C379.58 498.643 373.826 504.782 364.62 508.748C355.281 512.772 342.145 514.668 322.802 513.788L322.529 519.782ZM415.997 419.89C425.585 399.366 430.179 373.315 432.399 352.586C433.512 342.185 434.035 333.051 434.28 326.514C434.402 323.244 434.455 320.622 434.477 318.813C434.488 317.908 434.492 317.206 434.492 316.729C434.493 316.49 434.492 316.307 434.492 316.182C434.492 316.12 434.491 316.073 434.491 316.04C434.491 316.024 434.491 316.011 434.491 316.002C434.491 315.998 434.491 315.995 434.491 315.992C434.491 315.991 434.491 315.99 434.491 315.989C434.491 315.988 434.491 315.987 431.491 316.013C428.491 316.039 428.491 316.039 428.491 316.039C428.491 316.039 428.491 316.039 428.491 316.04C428.491 316.041 428.491 316.044 428.491 316.047C428.491 316.053 428.491 316.063 428.491 316.077C428.491 316.105 428.492 316.147 428.492 316.205C428.492 316.319 428.493 316.492 428.492 316.72C428.492 317.177 428.488 317.857 428.478 318.739C428.456 320.503 428.404 323.075 428.284 326.29C428.043 332.721 427.528 341.713 426.433 351.947C424.233 372.488 419.721 397.742 410.561 417.35L415.997 419.89ZM574.795 162.837C572.191 164.341 564.109 167.729 552.501 172.256C541.018 176.734 526.363 182.221 510.858 187.893L512.919 193.528C528.445 187.849 543.143 182.345 554.681 177.846C566.093 173.396 574.699 169.821 577.796 168.032L574.795 162.837ZM510.858 187.893C507.942 188.959 504.997 190.032 502.037 191.106L504.083 196.746C507.048 195.671 509.998 194.596 512.919 193.528L510.858 187.893ZM502.037 191.106C483.389 197.872 464.181 204.67 448.285 210.124L450.232 215.8C466.168 210.332 485.409 203.521 504.083 196.746L502.037 191.106ZM511.888 190.71C511.001 187.845 511 187.845 511 187.845C511 187.845 511 187.845 511 187.845C510.999 187.845 510.999 187.845 510.999 187.845C510.998 187.846 510.997 187.846 510.995 187.846C510.993 187.847 510.989 187.848 510.985 187.85C510.976 187.852 510.964 187.856 510.948 187.861C510.916 187.871 510.871 187.885 510.813 187.904C510.696 187.941 510.527 187.996 510.308 188.067C509.872 188.21 509.239 188.422 508.443 188.699C506.851 189.254 504.599 190.074 501.941 191.143L504.179 196.71C506.736 195.682 508.899 194.894 510.417 194.365C511.176 194.101 511.773 193.901 512.177 193.769C512.378 193.703 512.532 193.653 512.633 193.621C512.684 193.605 512.721 193.593 512.745 193.586C512.757 193.582 512.766 193.579 512.771 193.578C512.774 193.577 512.776 193.576 512.776 193.576C512.777 193.576 512.777 193.576 512.777 193.576C512.777 193.576 512.777 193.576 512.777 193.576C512.777 193.576 512.777 193.576 512.777 193.576C512.776 193.576 512.776 193.576 511.888 190.71ZM501.941 191.143C492.851 194.797 478.39 201.592 469.715 210.919L474.108 215.005C481.8 206.736 495.143 200.342 504.179 196.71L501.941 191.143ZM469.715 210.919C465.649 215.29 462.461 219.388 460.288 222.397C459.2 223.903 458.363 225.141 457.794 226.008C457.51 226.441 457.292 226.783 457.143 227.019C457.069 227.137 457.012 227.23 456.972 227.294C456.953 227.326 456.937 227.351 456.926 227.369C456.921 227.378 456.916 227.386 456.913 227.391C456.911 227.394 456.91 227.396 456.909 227.398C456.908 227.399 456.908 227.4 456.907 227.4C456.907 227.401 456.907 227.401 456.907 227.401C456.906 227.402 456.906 227.402 459.474 228.953C462.043 230.503 462.042 230.504 462.042 230.504C462.042 230.504 462.042 230.504 462.042 230.504C462.042 230.505 462.042 230.505 462.042 230.505C462.042 230.505 462.042 230.504 462.043 230.503C462.044 230.502 462.046 230.498 462.049 230.493C462.056 230.482 462.066 230.464 462.082 230.44C462.112 230.391 462.159 230.314 462.224 230.211C462.353 230.006 462.549 229.698 462.811 229.298C463.335 228.499 464.121 227.337 465.151 225.911C467.213 223.056 470.245 219.159 474.108 215.005L469.715 210.919Z" fill="#6B2F87"/>
<path d="M424.828 285.364C424.828 285.364 416.262 290.252 412.402 296.221C410.162 299.685 407.505 305.993 407.505 305.993C407.505 305.993 418.933 308.452 424.828 304.464C430.097 300.9 431.046 295.581 430.602 290.25C430.357 287.307 424.828 285.364 424.828 285.364Z" fill="#D9D9D9"/>
<path d="M439.486 280.034C439.486 280.034 435.932 280.034 430.602 282.255C428.962 282.939 424.828 285.364 424.828 285.364M424.828 285.364C424.828 285.364 416.262 290.252 412.402 296.221C410.162 299.685 407.505 305.993 407.505 305.993M424.828 285.364C424.828 285.364 430.357 287.307 430.602 290.25C431.046 295.581 430.097 300.9 424.828 304.464C418.933 308.452 407.505 305.993 407.505 305.993M403.507 313.348L407.505 305.993" stroke="#6B2F87" stroke-width="6" stroke-linecap="round"/>
<path d="M216.06 285.246C216.06 285.246 224.626 290.133 228.486 296.103C230.726 299.566 233.384 305.875 233.384 305.875C233.384 305.875 221.955 308.333 216.06 304.346C210.791 300.782 209.842 295.462 210.286 290.132C210.531 287.188 216.06 285.246 216.06 285.246Z" fill="#D9D9D9"/>
<path d="M201.402 279.916C207.151 280.465 204.956 279.916 210.286 282.137C211.927 282.82 216.06 285.246 216.06 285.246M216.06 285.246C216.06 285.246 224.626 290.133 228.486 296.103C230.726 299.566 233.384 305.875 233.384 305.875M216.06 285.246C216.06 285.246 210.531 287.188 210.286 290.132C209.842 295.462 210.791 300.782 216.06 304.346C221.955 308.333 233.384 305.875 233.384 305.875M237.381 313.23L233.384 305.875" stroke="#6B2F87" stroke-width="6" stroke-linecap="round"/>
</svg>
